<mxfile host="65bd71144e" modified="2020-11-01T19:57:00.212Z" agent="5.0 (Windows NT 10.0; Win64; x64) AppleWebKit/537.36 (KHTML, like Gecko) Code/1.50.1 Chrome/83.0.4103.122 Electron/9.2.1 Safari/537.36" etag="Ir-lrWlkrFxILi5yhP1G" version="13.6.5">
    <diagram id="qPzshUkTVhoIYl0psMam" name="Page-1">
        <mxGraphModel dx="1005" dy="170" grid="1" gridSize="10" guides="1" tooltips="1" connect="1" arrows="1" fold="1" page="1" pageScale="1" pageWidth="827" pageHeight="1169" math="0" shadow="0">
            <root>
                <mxCell id="0"/>
                <mxCell id="1" parent="0"/>
                <mxCell id="6" value="&lt;blockquote style=&quot;margin: 0 0 0 40px ; border: none ; padding: 0px&quot;&gt;&lt;/blockquote&gt;&lt;blockquote style=&quot;margin: 0 0 0 40px ; border: none ; padding: 0px&quot;&gt;&lt;blockquote style=&quot;margin: 0 0 0 40px ; border: none ; padding: 0px&quot;&gt;&lt;blockquote style=&quot;margin: 0 0 0 40px ; border: none ; padding: 0px&quot;&gt;&lt;span style=&quot;font-size: 18px&quot;&gt;&lt;b&gt;&lt;br&gt;&lt;/b&gt;&lt;/span&gt;&lt;/blockquote&gt;&lt;/blockquote&gt;&lt;/blockquote&gt;&lt;blockquote style=&quot;margin: 0 0 0 40px ; border: none ; padding: 0px&quot;&gt;&lt;blockquote style=&quot;margin: 0 0 0 40px ; border: none ; padding: 0px&quot;&gt;&lt;blockquote style=&quot;margin: 0 0 0 40px ; border: none ; padding: 0px&quot;&gt;&lt;blockquote style=&quot;margin: 0 0 0 40px ; border: none ; padding: 0px&quot;&gt;&lt;b&gt;&lt;font style=&quot;font-size: 18px&quot;&gt;Package Client&amp;nbsp; &amp;nbsp;&lt;/font&gt;&lt;/b&gt;&lt;/blockquote&gt;&lt;/blockquote&gt;&lt;/blockquote&gt;&lt;/blockquote&gt;" style="rounded=1;whiteSpace=wrap;html=1;strokeWidth=2;fillWeight=4;hachureGap=8;hachureAngle=45;fillColor=#60a917;sketch=1;strokeColor=#2D7600;align=right;verticalAlign=top;labelBackgroundColor=none;fontColor=#000000;" parent="1" vertex="1">
                    <mxGeometry x="230" y="50" width="620" height="275" as="geometry"/>
                </mxCell>
                <mxCell id="38" value="Abonne" style="whiteSpace=wrap;html=1;rounded=1;verticalAlign=top;" parent="1" vertex="1">
                    <mxGeometry x="520" y="50" width="150" height="150" as="geometry"/>
                </mxCell>
                <mxCell id="2" value="Package DonnÃ©e" style="rounded=1;whiteSpace=wrap;html=1;strokeWidth=2;fillWeight=4;hachureGap=8;hachureAngle=45;fillColor=#e51400;sketch=1;fontSize=18;strokeColor=#B20000;fontStyle=1;verticalAlign=top;align=left;fontColor=#000000;" parent="1" vertex="1">
                    <mxGeometry x="260" y="350" width="550" height="110" as="geometry"/>
                </mxCell>
                <mxCell id="3" value="&lt;blockquote style=&quot;margin: 0 0 0 40px ; border: none ; padding: 0px&quot;&gt;&lt;br&gt;&lt;br&gt;Package Vue&lt;/blockquote&gt;&lt;blockquote style=&quot;margin: 0 0 0 40px ; border: none ; padding: 0px&quot;&gt;&lt;br&gt;&lt;/blockquote&gt;" style="rounded=1;whiteSpace=wrap;html=1;strokeWidth=2;fillWeight=4;hachureGap=8;hachureAngle=45;fillColor=#6a00ff;sketch=1;strokeColor=#3700CC;fontSize=18;fontStyle=1;verticalAlign=bottom;align=left;fontColor=#000000;" parent="1" vertex="1">
                    <mxGeometry x="-410" y="590" width="740" height="370" as="geometry"/>
                </mxCell>
                <mxCell id="4" value="Package Controller&amp;nbsp;&amp;nbsp;&lt;br&gt;&amp;nbsp;&amp;nbsp;" style="rounded=1;whiteSpace=wrap;html=1;strokeWidth=2;fillWeight=4;hachureGap=8;hachureAngle=45;fillColor=#f0a30a;sketch=1;strokeColor=#BD7000;fontSize=18;fontStyle=1;align=right;verticalAlign=bottom;fontColor=#000000;" parent="1" vertex="1">
                    <mxGeometry x="380" y="670" width="540" height="260" as="geometry"/>
                </mxCell>
                <mxCell id="5" value="&lt;b&gt;&lt;font style=&quot;font-size: 18px&quot;&gt;Package BDD&lt;/font&gt;&lt;/b&gt;" style="rounded=1;whiteSpace=wrap;html=1;strokeWidth=2;fillWeight=4;hachureGap=8;hachureAngle=45;fillColor=#d80073;sketch=1;strokeColor=#A50040;align=right;verticalAlign=bottom;fontColor=#000000;" parent="1" vertex="1">
                    <mxGeometry x="447" y="480" width="380" height="180" as="geometry"/>
                </mxCell>
                <mxCell id="7" value="&lt;blockquote style=&quot;margin: 0 0 0 40px ; border: none ; padding: 0px&quot;&gt;&lt;b style=&quot;line-height: 120%&quot;&gt;&lt;font style=&quot;font-size: 18px&quot;&gt;&lt;br&gt;&lt;/font&gt;&lt;/b&gt;&lt;/blockquote&gt;&lt;blockquote style=&quot;margin: 0 0 0 40px ; border: none ; padding: 0px&quot;&gt;&lt;b style=&quot;line-height: 120%&quot;&gt;&lt;font style=&quot;font-size: 18px&quot;&gt;Package Cinema&lt;/font&gt;&lt;/b&gt;&lt;/blockquote&gt;&lt;blockquote style=&quot;margin: 0 0 0 40px ; border: none ; padding: 0px&quot;&gt;&lt;b style=&quot;line-height: 120%&quot;&gt;&lt;font style=&quot;font-size: 18px&quot;&gt;&lt;br&gt;&lt;/font&gt;&lt;/b&gt;&lt;/blockquote&gt;" style="rounded=1;whiteSpace=wrap;html=1;strokeWidth=2;fillWeight=4;hachureGap=8;hachureAngle=45;fillColor=#1ba1e2;sketch=1;align=left;verticalAlign=bottom;fontColor=#000000;" parent="1" vertex="1">
                    <mxGeometry x="-170" y="80" width="390" height="460" as="geometry"/>
                </mxCell>
                <mxCell id="9" value="DVD" style="whiteSpace=wrap;html=1;rounded=1;verticalAlign=top;" parent="1" vertex="1">
                    <mxGeometry x="70" y="225" width="120" height="60" as="geometry"/>
                </mxCell>
                <mxCell id="10" value="" style="edgeStyle=orthogonalEdgeStyle;rounded=0;orthogonalLoop=1;jettySize=auto;html=1;endArrow=none;endFill=0;" parent="1" source="11" target="15" edge="1">
                    <mxGeometry relative="1" as="geometry"/>
                </mxCell>
                <object label="Al2000Mediateur" id="11">
                    <mxCell style="rounded=1;whiteSpace=wrap;html=1;verticalAlign=top;" parent="1" vertex="1">
                        <mxGeometry x="270" y="390" width="120" height="60" as="geometry"/>
                    </mxCell>
                </object>
                <mxCell id="12" value="Statistique" style="whiteSpace=wrap;html=1;rounded=1;verticalAlign=top;" parent="1" vertex="1">
                    <mxGeometry x="500" y="370" width="280" height="80" as="geometry"/>
                </mxCell>
                <mxCell id="13" value="Location" style="whiteSpace=wrap;html=1;rounded=1;verticalAlign=top;" parent="1" vertex="1">
                    <mxGeometry x="240" y="200" width="120" height="110" as="geometry"/>
                </mxCell>
                <mxCell id="14" value="" style="edgeStyle=orthogonalEdgeStyle;rounded=0;orthogonalLoop=1;jettySize=auto;html=1;endArrow=none;endFill=0;entryX=1;entryY=0.59;entryDx=0;entryDy=0;entryPerimeter=0;" parent="1" source="15" target="22" edge="1">
                    <mxGeometry relative="1" as="geometry">
                        <mxPoint x="-10" y="420" as="targetPoint"/>
                    </mxGeometry>
                </mxCell>
                <mxCell id="15" value="Film" style="whiteSpace=wrap;html=1;rounded=1;verticalAlign=top;" parent="1" vertex="1">
                    <mxGeometry x="70" y="345" width="120" height="150" as="geometry"/>
                </mxCell>
                <object label="Affichage" id="17">
                    <mxCell style="rounded=1;whiteSpace=wrap;html=1;verticalAlign=top;" parent="1" vertex="1">
                        <mxGeometry x="190" y="610" width="120" height="60" as="geometry"/>
                    </mxCell>
                </object>
                <object label="Controleur" id="19">
                    <mxCell style="rounded=1;whiteSpace=wrap;html=1;verticalAlign=top;" parent="1" vertex="1">
                        <mxGeometry x="420" y="670" width="120" height="60" as="geometry"/>
                    </mxCell>
                </object>
                <mxCell id="20" value="" style="endArrow=none;html=1;exitX=0.5;exitY=0;exitDx=0;exitDy=0;" parent="1" source="17" edge="1">
                    <mxGeometry width="50" height="50" relative="1" as="geometry">
                        <mxPoint x="280" y="500" as="sourcePoint"/>
                        <mxPoint x="329.99999999999955" y="450" as="targetPoint"/>
                    </mxGeometry>
                </mxCell>
                <mxCell id="21" value="" style="endArrow=none;html=1;entryX=0.5;entryY=1;entryDx=0;entryDy=0;exitX=0.25;exitY=0;exitDx=0;exitDy=0;" parent="1" source="19" target="11" edge="1">
                    <mxGeometry width="50" height="50" relative="1" as="geometry">
                        <mxPoint x="340" y="500" as="sourcePoint"/>
                        <mxPoint x="390" y="450" as="targetPoint"/>
                    </mxGeometry>
                </mxCell>
                <mxCell id="22" value="Celebrite" style="rounded=1;whiteSpace=wrap;html=1;verticalAlign=top;" parent="1" vertex="1">
                    <mxGeometry x="-130" y="367" width="120" height="90" as="geometry"/>
                </mxCell>
                <mxCell id="28" value="" style="endArrow=none;html=1;entryX=0;entryY=0.5;entryDx=0;entryDy=0;exitX=1;exitY=0.5;exitDx=0;exitDy=0;" parent="1" source="9" target="13" edge="1">
                    <mxGeometry width="50" height="50" relative="1" as="geometry">
                        <mxPoint x="140" y="360" as="sourcePoint"/>
                        <mxPoint x="190" y="310" as="targetPoint"/>
                    </mxGeometry>
                </mxCell>
                <mxCell id="29" value="Genre" style="rounded=1;whiteSpace=wrap;html=1;verticalAlign=top;" parent="1" vertex="1">
                    <mxGeometry x="-110" y="95" width="120" height="60" as="geometry"/>
                </mxCell>
                <mxCell id="30" value="" style="endArrow=none;html=1;entryX=0.5;entryY=1;entryDx=0;entryDy=0;exitX=0.5;exitY=0;exitDx=0;exitDy=0;startArrow=blockThin;startFill=1;" parent="1" source="15" target="9" edge="1">
                    <mxGeometry width="50" height="50" relative="1" as="geometry">
                        <mxPoint x="133" y="391" as="sourcePoint"/>
                        <mxPoint x="200" y="320" as="targetPoint"/>
                    </mxGeometry>
                </mxCell>
                <mxCell id="31" value="" style="endArrow=none;html=1;entryX=0.5;entryY=1;entryDx=0;entryDy=0;exitX=0.25;exitY=0;exitDx=0;exitDy=0;" parent="1" source="15" target="29" edge="1">
                    <mxGeometry width="50" height="50" relative="1" as="geometry">
                        <mxPoint x="90" y="350" as="sourcePoint"/>
                        <mxPoint x="140" y="300" as="targetPoint"/>
                    </mxGeometry>
                </mxCell>
                <mxCell id="32" value="" style="endArrow=none;html=1;exitX=1;exitY=0.5;exitDx=0;exitDy=0;entryX=0;entryY=0.5;entryDx=0;entryDy=0;" parent="1" source="11" target="36" edge="1">
                    <mxGeometry width="50" height="50" relative="1" as="geometry">
                        <mxPoint x="410" y="390" as="sourcePoint"/>
                        <mxPoint x="470" y="310" as="targetPoint"/>
                    </mxGeometry>
                </mxCell>
                <mxCell id="34" value="" style="edgeStyle=orthogonalEdgeStyle;rounded=0;orthogonalLoop=1;jettySize=auto;html=1;endArrow=block;endFill=0;entryX=0.5;entryY=0;entryDx=0;entryDy=0;exitX=0.5;exitY=1;exitDx=0;exitDy=0;" parent="1" source="38" target="36" edge="1">
                    <mxGeometry relative="1" as="geometry"/>
                </mxCell>
                <mxCell id="36" value="Utilisateur" style="ellipse;whiteSpace=wrap;html=1;rounded=0;verticalAlign=top;" parent="1" vertex="1">
                    <mxGeometry x="610" y="220" width="120" height="80" as="geometry"/>
                </mxCell>
                <mxCell id="39" value="NonAbonne" style="whiteSpace=wrap;html=1;rounded=1;verticalAlign=top;" parent="1" vertex="1">
                    <mxGeometry x="430" y="230" width="120" height="60" as="geometry"/>
                </mxCell>
                <mxCell id="42" value="" style="edgeStyle=orthogonalEdgeStyle;rounded=0;orthogonalLoop=1;jettySize=auto;html=1;endArrow=blockThin;endFill=1;" parent="1" source="43" target="44" edge="1">
                    <mxGeometry relative="1" as="geometry"/>
                </mxCell>
                <mxCell id="43" value="Requete" style="whiteSpace=wrap;html=1;rounded=1;verticalAlign=top;" parent="1" vertex="1">
                    <mxGeometry x="495" y="480" width="130" height="90" as="geometry"/>
                </mxCell>
                <mxCell id="44" value="Interaction&lt;br&gt;BaseOracle" style="whiteSpace=wrap;html=1;rounded=1;verticalAlign=top;" parent="1" vertex="1">
                    <mxGeometry x="650" y="490" width="170" height="70" as="geometry"/>
                </mxCell>
                <mxCell id="45" value="" style="endArrow=none;html=1;entryX=0;entryY=0.5;entryDx=0;entryDy=0;" parent="1" target="12" edge="1">
                    <mxGeometry width="50" height="50" relative="1" as="geometry">
                        <mxPoint x="393" y="420" as="sourcePoint"/>
                        <mxPoint x="550" y="390" as="targetPoint"/>
                    </mxGeometry>
                </mxCell>
                <mxCell id="46" value="" style="endArrow=none;html=1;entryX=0;entryY=0.5;entryDx=0;entryDy=0;exitX=1;exitY=0.5;exitDx=0;exitDy=0;" parent="1" source="11" target="43" edge="1">
                    <mxGeometry width="50" height="50" relative="1" as="geometry">
                        <mxPoint x="390" y="470" as="sourcePoint"/>
                        <mxPoint x="460.71067811865476" y="420" as="targetPoint"/>
                    </mxGeometry>
                </mxCell>
                <mxCell id="47" value="Ecrantactile" style="rounded=1;whiteSpace=wrap;html=1;fontSize=12;align=center;verticalAlign=top;" parent="1" vertex="1">
                    <mxGeometry x="390" y="800" width="120" height="60" as="geometry"/>
                </mxCell>
                <mxCell id="48" value="LecteurCarteBleu" style="rounded=1;whiteSpace=wrap;html=1;fontSize=12;align=center;verticalAlign=top;" parent="1" vertex="1">
                    <mxGeometry x="530" y="800" width="120" height="60" as="geometry"/>
                </mxCell>
                <mxCell id="49" value="LecteurCarteAbo" style="rounded=1;whiteSpace=wrap;html=1;fontSize=12;align=center;verticalAlign=top;" parent="1" vertex="1">
                    <mxGeometry x="660" y="800" width="120" height="60" as="geometry"/>
                </mxCell>
                <mxCell id="50" value="" style="endArrow=blockThin;html=1;fontSize=12;entryX=0.5;entryY=0;entryDx=0;entryDy=0;exitX=0.5;exitY=1;exitDx=0;exitDy=0;startArrow=none;startFill=0;endFill=1;" parent="1" source="19" target="48" edge="1">
                    <mxGeometry width="50" height="50" relative="1" as="geometry">
                        <mxPoint x="440" y="590" as="sourcePoint"/>
                        <mxPoint x="490" y="540" as="targetPoint"/>
                    </mxGeometry>
                </mxCell>
                <mxCell id="51" value="" style="endArrow=blockThin;html=1;fontSize=12;exitX=0.5;exitY=1;exitDx=0;exitDy=0;entryX=0.5;entryY=0;entryDx=0;entryDy=0;startArrow=none;startFill=0;endFill=1;" parent="1" source="19" target="49" edge="1">
                    <mxGeometry width="50" height="50" relative="1" as="geometry">
                        <mxPoint x="620" y="680" as="sourcePoint"/>
                        <mxPoint x="670" y="630" as="targetPoint"/>
                    </mxGeometry>
                </mxCell>
                <mxCell id="52" value="" style="endArrow=blockThin;html=1;fontSize=12;exitX=0.5;exitY=1;exitDx=0;exitDy=0;startArrow=none;startFill=0;endFill=1;entryX=0.5;entryY=0;entryDx=0;entryDy=0;" parent="1" source="19" target="47" edge="1">
                    <mxGeometry width="50" height="50" relative="1" as="geometry">
                        <mxPoint x="460" y="800" as="sourcePoint"/>
                        <mxPoint x="360" y="780" as="targetPoint"/>
                    </mxGeometry>
                </mxCell>
                <mxCell id="53" value="Transaction&lt;br&gt;Banque" style="whiteSpace=wrap;html=1;rounded=1;verticalAlign=top;" parent="1" vertex="1">
                    <mxGeometry x="500" y="580" width="120" height="70" as="geometry"/>
                </mxCell>
                <mxCell id="54" value="" style="endArrow=none;html=1;fontSize=12;exitX=0;exitY=0.5;exitDx=0;exitDy=0;" parent="1" source="53" edge="1">
                    <mxGeometry width="50" height="50" relative="1" as="geometry">
                        <mxPoint x="410" y="550" as="sourcePoint"/>
                        <mxPoint x="389.99999999999955" y="420" as="targetPoint"/>
                    </mxGeometry>
                </mxCell>
                <mxCell id="55" value="LecteurDVD" style="rounded=1;whiteSpace=wrap;html=1;fontSize=12;align=center;verticalAlign=top;" parent="1" vertex="1">
                    <mxGeometry x="790" y="800" width="120" height="60" as="geometry"/>
                </mxCell>
                <mxCell id="56" value="" style="endArrow=blockThin;html=1;fontSize=12;entryX=0.5;entryY=0;entryDx=0;entryDy=0;startArrow=none;startFill=0;endFill=1;" parent="1" target="55" edge="1">
                    <mxGeometry width="50" height="50" relative="1" as="geometry">
                        <mxPoint x="479.99999999999955" y="730" as="sourcePoint"/>
                        <mxPoint x="730" y="810" as="targetPoint"/>
                    </mxGeometry>
                </mxCell>
                <object label="Ecran&lt;br&gt;Accuel" id="57">
                    <mxCell style="rounded=1;whiteSpace=wrap;html=1;verticalAlign=top;" parent="1" vertex="1">
                        <mxGeometry x="-260" y="720" width="120" height="60" as="geometry"/>
                    </mxCell>
                </object>
                <object label="Ecran&lt;br&gt;ListingFilm" id="58">
                    <mxCell style="rounded=1;whiteSpace=wrap;html=1;verticalAlign=top;" parent="1" vertex="1">
                        <mxGeometry x="-120" y="720" width="120" height="60" as="geometry"/>
                    </mxCell>
                </object>
                <object label="Ecran&lt;br&gt;Film" id="59">
                    <mxCell style="rounded=1;whiteSpace=wrap;html=1;verticalAlign=top;" parent="1" vertex="1">
                        <mxGeometry x="20" y="720" width="120" height="60" as="geometry"/>
                    </mxCell>
                </object>
                <object label="Ecran&lt;br&gt;InfosUtilisateur&amp;nbsp;" id="60">
                    <mxCell style="rounded=1;whiteSpace=wrap;html=1;verticalAlign=top;" parent="1" vertex="1">
                        <mxGeometry x="170" y="710" width="120" height="70" as="geometry"/>
                    </mxCell>
                </object>
                <object label="Ecran&lt;br&gt;RechargerCarte" id="61">
                    <mxCell style="rounded=1;whiteSpace=wrap;html=1;verticalAlign=top;" parent="1" vertex="1">
                        <mxGeometry x="-260" y="800" width="120" height="60" as="geometry"/>
                    </mxCell>
                </object>
                <object label="Ecran&lt;br&gt;GestionAccueil" id="62">
                    <mxCell style="rounded=1;whiteSpace=wrap;html=1;verticalAlign=top;" parent="1" vertex="1">
                        <mxGeometry x="-120" y="800" width="120" height="60" as="geometry"/>
                    </mxCell>
                </object>
                <object label="Ecran&lt;br&gt;Technicien" id="63">
                    <mxCell style="rounded=1;whiteSpace=wrap;html=1;verticalAlign=top;" parent="1" vertex="1">
                        <mxGeometry x="20" y="800" width="120" height="60" as="geometry"/>
                    </mxCell>
                </object>
                <object label="Ecran&lt;br&gt;Statistiques" id="64">
                    <mxCell style="rounded=1;whiteSpace=wrap;html=1;verticalAlign=top;" parent="1" vertex="1">
                        <mxGeometry x="170" y="800" width="120" height="60" as="geometry"/>
                    </mxCell>
                </object>
                <object label="Overlay&lt;br&gt;Utilisateur" id="65">
                    <mxCell style="rounded=1;whiteSpace=wrap;html=1;verticalAlign=top;" parent="1" vertex="1">
                        <mxGeometry x="-370" y="600" width="120" height="60" as="geometry"/>
                    </mxCell>
                </object>
                <mxCell id="66" value="" style="endArrow=none;html=1;fontSize=12;entryX=0;entryY=0.5;entryDx=0;entryDy=0;exitX=1;exitY=0.5;exitDx=0;exitDy=0;startArrow=blockThin;startFill=1;" parent="1" source="65" target="17" edge="1">
                    <mxGeometry width="50" height="50" relative="1" as="geometry">
                        <mxPoint x="-140" y="690" as="sourcePoint"/>
                        <mxPoint x="-90" y="640" as="targetPoint"/>
                    </mxGeometry>
                </mxCell>
                <mxCell id="67" value="" style="endArrow=none;html=1;fontSize=12;entryX=0.5;entryY=1;entryDx=0;entryDy=0;exitX=0.5;exitY=0;exitDx=0;exitDy=0;startArrow=blockThin;startFill=1;" parent="1" source="57" target="17" edge="1">
                    <mxGeometry width="50" height="50" relative="1" as="geometry">
                        <mxPoint x="50" y="810" as="sourcePoint"/>
                        <mxPoint x="100" y="760" as="targetPoint"/>
                    </mxGeometry>
                </mxCell>
                <mxCell id="68" value="" style="endArrow=none;html=1;fontSize=12;entryX=0.5;entryY=1;entryDx=0;entryDy=0;exitX=0.5;exitY=0;exitDx=0;exitDy=0;startArrow=blockThin;startFill=1;" parent="1" source="58" target="17" edge="1">
                    <mxGeometry width="50" height="50" relative="1" as="geometry">
                        <mxPoint x="-190" y="730" as="sourcePoint"/>
                        <mxPoint x="260" y="680" as="targetPoint"/>
                    </mxGeometry>
                </mxCell>
                <mxCell id="69" value="" style="endArrow=none;html=1;fontSize=12;entryX=0.5;entryY=1;entryDx=0;entryDy=0;exitX=0.5;exitY=0;exitDx=0;exitDy=0;startArrow=blockThin;startFill=1;" parent="1" source="59" target="17" edge="1">
                    <mxGeometry width="50" height="50" relative="1" as="geometry">
                        <mxPoint x="-50" y="730" as="sourcePoint"/>
                        <mxPoint x="260" y="680" as="targetPoint"/>
                    </mxGeometry>
                </mxCell>
                <mxCell id="70" value="" style="endArrow=none;html=1;fontSize=12;entryX=0.5;entryY=1;entryDx=0;entryDy=0;exitX=0.5;exitY=0;exitDx=0;exitDy=0;startArrow=blockThin;startFill=1;" parent="1" source="60" target="17" edge="1">
                    <mxGeometry width="50" height="50" relative="1" as="geometry">
                        <mxPoint x="90" y="730" as="sourcePoint"/>
                        <mxPoint x="260" y="680" as="targetPoint"/>
                    </mxGeometry>
                </mxCell>
                <mxCell id="71" value="" style="endArrow=none;html=1;fontSize=12;startArrow=blockThin;startFill=1;" parent="1" source="64" edge="1">
                    <mxGeometry width="50" height="50" relative="1" as="geometry">
                        <mxPoint x="240" y="730" as="sourcePoint"/>
                        <mxPoint x="249.99999999999955" y="670" as="targetPoint"/>
                    </mxGeometry>
                </mxCell>
                <mxCell id="72" value="" style="endArrow=none;html=1;fontSize=12;exitX=0.5;exitY=0;exitDx=0;exitDy=0;entryX=0.5;entryY=1;entryDx=0;entryDy=0;startArrow=blockThin;startFill=1;" parent="1" source="63" target="17" edge="1">
                    <mxGeometry width="50" height="50" relative="1" as="geometry">
                        <mxPoint x="243.75" y="810" as="sourcePoint"/>
                        <mxPoint x="260" y="680" as="targetPoint"/>
                    </mxGeometry>
                </mxCell>
                <mxCell id="73" value="" style="endArrow=none;html=1;fontSize=12;exitX=0.5;exitY=0;exitDx=0;exitDy=0;startArrow=blockThin;startFill=1;" parent="1" source="62" edge="1">
                    <mxGeometry width="50" height="50" relative="1" as="geometry">
                        <mxPoint x="90" y="810" as="sourcePoint"/>
                        <mxPoint x="249.99999999999955" y="670" as="targetPoint"/>
                    </mxGeometry>
                </mxCell>
                <mxCell id="74" value="" style="endArrow=none;html=1;fontSize=12;exitX=0.5;exitY=0;exitDx=0;exitDy=0;startArrow=blockThin;startFill=1;" parent="1" source="61" edge="1">
                    <mxGeometry width="50" height="50" relative="1" as="geometry">
                        <mxPoint x="-50" y="810" as="sourcePoint"/>
                        <mxPoint x="249.99999999999955" y="670" as="targetPoint"/>
                    </mxGeometry>
                </mxCell>
                <object label="Ecran&lt;br&gt;Inscription" id="75">
                    <mxCell style="rounded=1;whiteSpace=wrap;html=1;verticalAlign=top;" parent="1" vertex="1">
                        <mxGeometry x="-400" y="720" width="120" height="60" as="geometry"/>
                    </mxCell>
                </object>
                <mxCell id="76" value="" style="endArrow=none;html=1;fontSize=12;entryX=0.5;entryY=1;entryDx=0;entryDy=0;exitX=0.5;exitY=0;exitDx=0;exitDy=0;startArrow=blockThin;startFill=1;" parent="1" source="75" target="17" edge="1">
                    <mxGeometry width="50" height="50" relative="1" as="geometry">
                        <mxPoint x="-190" y="730" as="sourcePoint"/>
                        <mxPoint x="260" y="680" as="targetPoint"/>
                    </mxGeometry>
                </mxCell>
                <mxCell id="80" value="-titre : String&lt;br style=&quot;font-size: 11px&quot;&gt;-annÃ©e : Date&lt;br&gt;-genres : Genre[]&lt;br&gt;-agemini : Integer&lt;br&gt;-resume : String&lt;br&gt;-duree : integer&lt;br&gt;-rea : Celebrite[]&lt;br&gt;-acteurs : Celebrite[]" style="text;html=1;strokeColor=none;fillColor=none;align=left;verticalAlign=top;whiteSpace=wrap;rounded=0;fontSize=11;" parent="1" vertex="1">
                    <mxGeometry x="80" y="365" width="110" height="80" as="geometry"/>
                </mxCell>
                <mxCell id="84" value="&lt;div style=&quot;text-align: justify&quot;&gt;&lt;span style=&quot;font-size: 10px&quot;&gt;-id_acteur : integer&lt;/span&gt;&lt;/div&gt;&lt;font style=&quot;font-size: 10px&quot;&gt;&lt;div style=&quot;text-align: justify&quot;&gt;&lt;span&gt;-nom : String&amp;nbsp; &amp;nbsp; &amp;nbsp;&lt;/span&gt;&lt;/div&gt;&lt;div style=&quot;text-align: justify&quot;&gt;&lt;span&gt;-courte_bio :String&lt;/span&gt;&lt;br&gt;&lt;/div&gt;&lt;div style=&quot;text-align: justify&quot;&gt;-filmographie : String[]&lt;span&gt;&lt;br&gt;&lt;/span&gt;&lt;/div&gt;&lt;/font&gt;" style="text;html=1;strokeColor=none;fillColor=none;align=center;verticalAlign=middle;whiteSpace=wrap;rounded=0;" parent="1" vertex="1">
                    <mxGeometry x="-125" y="402" width="110" height="30" as="geometry"/>
                </mxCell>
                <mxCell id="85" value="-etat : Integer&lt;br&gt;-sous_titre : boolean" style="text;html=1;strokeColor=none;fillColor=none;align=left;verticalAlign=top;whiteSpace=wrap;rounded=0;fontSize=11;" parent="1" vertex="1">
                    <mxGeometry x="75" y="245" width="110" height="30" as="geometry"/>
                </mxCell>
                <mxCell id="87" value="Enum : String" style="text;html=1;strokeColor=none;fillColor=none;align=left;verticalAlign=top;whiteSpace=wrap;rounded=0;fontSize=11;" parent="1" vertex="1">
                    <mxGeometry x="-105" y="127.5" width="80" height="30" as="geometry"/>
                </mxCell>
                <mxCell id="90" value="-nom : String&lt;br&gt;-prenom : String&lt;br&gt;-age : Integer&lt;br&gt;-mail : String&lt;br&gt;-solde : Integer&lt;br&gt;-restriction : Genre[]&lt;br&gt;-historique : String[]&lt;br&gt;&lt;br&gt;sendNotif()" style="text;html=1;strokeColor=none;fillColor=none;align=left;verticalAlign=top;whiteSpace=wrap;rounded=0;fontSize=11;" parent="1" vertex="1">
                    <mxGeometry x="520" y="62.5" width="150" height="125" as="geometry"/>
                </mxCell>
                <mxCell id="92" value="-cartebleu : Integer" style="text;html=1;strokeColor=none;fillColor=none;align=left;verticalAlign=top;whiteSpace=wrap;rounded=0;fontSize=11;" parent="1" vertex="1">
                    <mxGeometry x="620" y="245" width="110" height="45" as="geometry"/>
                </mxCell>
                <mxCell id="93" value="-dateemprunt : Date&lt;br&gt;-date_retour : Date" style="text;html=1;strokeColor=none;fillColor=none;align=left;verticalAlign=top;whiteSpace=wrap;rounded=0;fontSize=11;" parent="1" vertex="1">
                    <mxGeometry x="250" y="220" width="110" height="80" as="geometry"/>
                </mxCell>
                <mxCell id="96" value="&lt;div style=&quot;text-align: justify&quot;&gt;&lt;span&gt;nb_location_user()&lt;/span&gt;&lt;br&gt;&lt;/div&gt;&lt;div style=&quot;text-align: justify&quot;&gt;&lt;span&gt;film_prefere()&lt;/span&gt;&lt;/div&gt;&lt;div style=&quot;text-align: justify&quot;&gt;&lt;span&gt;...&lt;/span&gt;&lt;/div&gt;" style="text;html=1;strokeColor=none;fillColor=none;align=center;verticalAlign=middle;whiteSpace=wrap;rounded=0;" parent="1" vertex="1">
                    <mxGeometry x="660" y="400" width="105" height="40" as="geometry"/>
                </mxCell>
                <mxCell id="97" value="" style="endArrow=none;html=1;fontSize=11;entryX=0;entryY=0.5;entryDx=0;entryDy=0;exitX=1;exitY=0.5;exitDx=0;exitDy=0;" parent="1" source="29" target="38" edge="1">
                    <mxGeometry width="50" height="50" relative="1" as="geometry">
                        <mxPoint x="250" y="220" as="sourcePoint"/>
                        <mxPoint x="300" y="170" as="targetPoint"/>
                    </mxGeometry>
                </mxCell>
                <mxCell id="99" value="getAllFilms():String[]&lt;br&gt;getAllAvailable():String[]&lt;br style=&quot;font-size: 10px&quot;&gt;getFilm(String titre):Film&lt;br&gt;getUser(Integer id)&lt;br&gt;setUser(Abonne a)&amp;nbsp;" style="text;html=1;strokeColor=none;fillColor=none;align=left;verticalAlign=middle;whiteSpace=wrap;rounded=0;fontSize=10;" parent="1" vertex="1">
                    <mxGeometry x="500" y="502" width="130" height="68" as="geometry"/>
                </mxCell>
                <mxCell id="100" value="SendRequest(String sql):ResultSet&lt;br&gt;SendUpdate(String sql):Integer" style="text;html=1;strokeColor=none;fillColor=none;align=left;verticalAlign=middle;whiteSpace=wrap;rounded=0;fontSize=10;" parent="1" vertex="1">
                    <mxGeometry x="655" y="518" width="165" height="40" as="geometry"/>
                </mxCell>
                <mxCell id="101" value="Debiter(Integer carte, Integer montant): Bool" style="text;html=1;strokeColor=none;fillColor=none;align=left;verticalAlign=middle;whiteSpace=wrap;rounded=0;fontSize=10;" parent="1" vertex="1">
                    <mxGeometry x="510" y="610" width="115" height="40" as="geometry"/>
                </mxCell>
                <mxCell id="102" value="&lt;div style=&quot;text-align: justify&quot;&gt;&lt;span&gt;tri_film(param_tri)&lt;/span&gt;&lt;/div&gt;" style="text;html=1;strokeColor=none;fillColor=none;align=center;verticalAlign=middle;whiteSpace=wrap;rounded=0;" parent="1" vertex="1">
                    <mxGeometry x="-95" y="760" width="60" height="20" as="geometry"/>
                </mxCell>
                <mxCell id="103" value="Interaction&lt;br&gt;BaseLocale" style="whiteSpace=wrap;html=1;rounded=1;verticalAlign=top;" parent="1" vertex="1">
                    <mxGeometry x="650" y="570" width="170" height="60" as="geometry"/>
                </mxCell>
                <mxCell id="106" value="" style="endArrow=blockThin;html=1;fontSize=10;exitX=1;exitY=0.5;exitDx=0;exitDy=0;entryX=0;entryY=0.5;entryDx=0;entryDy=0;endFill=1;" parent="1" source="43" target="103" edge="1">
                    <mxGeometry width="50" height="50" relative="1" as="geometry">
                        <mxPoint x="640" y="630" as="sourcePoint"/>
                        <mxPoint x="447" y="570" as="targetPoint"/>
                    </mxGeometry>
                </mxCell>
                <mxCell id="107" value="affiche_film()" style="text;html=1;strokeColor=none;fillColor=none;align=center;verticalAlign=middle;whiteSpace=wrap;rounded=0;" parent="1" vertex="1">
                    <mxGeometry x="40" y="760" width="40" height="20" as="geometry"/>
                </mxCell>
                <mxCell id="108" value="affiche_info_user()&lt;br&gt;affiche_histoirque()" style="text;html=1;strokeColor=none;fillColor=none;align=center;verticalAlign=middle;whiteSpace=wrap;rounded=0;" parent="1" vertex="1">
                    <mxGeometry x="210" y="750" width="40" height="20" as="geometry"/>
                </mxCell>
                <mxCell id="109" value="choisir_accueil()" style="text;html=1;strokeColor=none;fillColor=none;align=center;verticalAlign=middle;whiteSpace=wrap;rounded=0;" parent="1" vertex="1">
                    <mxGeometry x="-110" y="840" width="100" height="20" as="geometry"/>
                </mxCell>
                <mxCell id="110" value="SendRequest(String sql):ResultSet&lt;br&gt;SendUpdate(String sql):Integer" style="text;html=1;strokeColor=none;fillColor=none;align=left;verticalAlign=middle;whiteSpace=wrap;rounded=0;fontSize=10;" parent="1" vertex="1">
                    <mxGeometry x="649" y="595" width="165" height="40" as="geometry"/>
                </mxCell>
                <mxCell id="111" value="affiche_sttats()&lt;br&gt;" style="text;html=1;strokeColor=none;fillColor=none;align=center;verticalAlign=middle;whiteSpace=wrap;rounded=0;" parent="1" vertex="1">
                    <mxGeometry x="210" y="840" width="40" height="20" as="geometry"/>
                </mxCell>
                <mxCell id="113" value="1.*" style="text;html=1;strokeColor=none;fillColor=none;align=center;verticalAlign=middle;whiteSpace=wrap;rounded=0;" parent="1" vertex="1">
                    <mxGeometry x="-20" y="400" width="40" height="20" as="geometry"/>
                </mxCell>
                <mxCell id="115" value="1.*" style="text;html=1;strokeColor=none;fillColor=none;align=center;verticalAlign=middle;whiteSpace=wrap;rounded=0;" parent="1" vertex="1">
                    <mxGeometry x="34" y="401" width="40" height="20" as="geometry"/>
                </mxCell>
                <mxCell id="120" value="1" style="text;html=1;strokeColor=none;fillColor=none;align=center;verticalAlign=middle;whiteSpace=wrap;rounded=0;" parent="1" vertex="1">
                    <mxGeometry x="134" y="330" width="20" height="15" as="geometry"/>
                </mxCell>
                <mxCell id="121" value="1" style="text;html=1;strokeColor=none;fillColor=none;align=center;verticalAlign=middle;whiteSpace=wrap;rounded=0;" parent="1" vertex="1">
                    <mxGeometry x="180" y="234" width="40" height="20" as="geometry"/>
                </mxCell>
                <mxCell id="122" value="1" style="text;html=1;strokeColor=none;fillColor=none;align=center;verticalAlign=middle;whiteSpace=wrap;rounded=0;" parent="1" vertex="1">
                    <mxGeometry x="213" y="234" width="40" height="20" as="geometry"/>
                </mxCell>
                <mxCell id="125" value="0.1" style="text;html=1;strokeColor=none;fillColor=none;align=center;verticalAlign=middle;whiteSpace=wrap;rounded=0;" parent="1" vertex="1">
                    <mxGeometry x="455" y="150" width="40" height="20" as="geometry"/>
                </mxCell>
                <mxCell id="126" value="0.1" style="text;html=1;strokeColor=none;fillColor=none;align=center;verticalAlign=middle;whiteSpace=wrap;rounded=0;" parent="1" vertex="1">
                    <mxGeometry x="354" y="245" width="40" height="20" as="geometry"/>
                </mxCell>
                <mxCell id="127" value="" style="endArrow=none;html=1;fontSize=10;entryX=0;entryY=0.5;entryDx=0;entryDy=0;exitX=1;exitY=0.5;exitDx=0;exitDy=0;startArrow=none;startFill=0;" parent="1" source="13" target="90" edge="1">
                    <mxGeometry width="50" height="50" relative="1" as="geometry">
                        <mxPoint x="430" y="250" as="sourcePoint"/>
                        <mxPoint x="480" y="200" as="targetPoint"/>
                    </mxGeometry>
                </mxCell>
                <mxCell id="129" value="0.3" style="text;html=1;strokeColor=none;fillColor=none;align=center;verticalAlign=middle;whiteSpace=wrap;rounded=0;" parent="1" vertex="1">
                    <mxGeometry x="350" y="214" width="40" height="20" as="geometry"/>
                </mxCell>
                <mxCell id="131" value="" style="endArrow=none;html=1;fontSize=10;entryX=0;entryY=0.5;entryDx=0;entryDy=0;exitX=1;exitY=0.5;exitDx=0;exitDy=0;startArrow=none;startFill=0;" parent="1" source="93" target="39" edge="1">
                    <mxGeometry width="50" height="50" relative="1" as="geometry">
                        <mxPoint x="370" y="265" as="sourcePoint"/>
                        <mxPoint x="520" y="152.5" as="targetPoint"/>
                    </mxGeometry>
                </mxCell>
                <mxCell id="132" value="0.1" style="text;html=1;strokeColor=none;fillColor=none;align=center;verticalAlign=middle;whiteSpace=wrap;rounded=0;" parent="1" vertex="1">
                    <mxGeometry x="390" y="245" width="40" height="20" as="geometry"/>
                </mxCell>
                <mxCell id="133" value="" style="endArrow=block;html=1;fontSize=10;exitX=1;exitY=0.5;exitDx=0;exitDy=0;entryX=0;entryY=0.5;entryDx=0;entryDy=0;endFill=0;" parent="1" source="39" target="36" edge="1">
                    <mxGeometry width="50" height="50" relative="1" as="geometry">
                        <mxPoint x="570" y="320" as="sourcePoint"/>
                        <mxPoint x="620" y="270" as="targetPoint"/>
                    </mxGeometry>
                </mxCell>
                <mxCell id="134" value="0.1" style="text;html=1;strokeColor=none;fillColor=none;align=center;verticalAlign=middle;whiteSpace=wrap;rounded=0;" parent="1" vertex="1">
                    <mxGeometry x="570" y="295" width="40" height="20" as="geometry"/>
                </mxCell>
                <mxCell id="135" value="1" style="text;html=1;strokeColor=none;fillColor=none;align=center;verticalAlign=middle;whiteSpace=wrap;rounded=0;" parent="1" vertex="1">
                    <mxGeometry x="470" y="392" width="40" height="20" as="geometry"/>
                </mxCell>
                <mxCell id="136" value="1" style="text;html=1;strokeColor=none;fillColor=none;align=center;verticalAlign=middle;whiteSpace=wrap;rounded=0;" parent="1" vertex="1">
                    <mxGeometry x="380" y="390" width="40" height="20" as="geometry"/>
                </mxCell>
                <mxCell id="137" value="1" style="text;html=1;strokeColor=none;fillColor=none;align=center;verticalAlign=middle;whiteSpace=wrap;rounded=0;" parent="1" vertex="1">
                    <mxGeometry x="230" y="580" width="40" height="20" as="geometry"/>
                </mxCell>
                <mxCell id="139" value="1" style="text;html=1;strokeColor=none;fillColor=none;align=center;verticalAlign=middle;whiteSpace=wrap;rounded=0;" parent="1" vertex="1">
                    <mxGeometry x="290" y="447" width="40" height="20" as="geometry"/>
                </mxCell>
                <mxCell id="142" value="1" style="text;html=1;strokeColor=none;fillColor=none;align=center;verticalAlign=middle;whiteSpace=wrap;rounded=0;" parent="1" vertex="1">
                    <mxGeometry x="610" y="502" width="40" height="20" as="geometry"/>
                </mxCell>
                <mxCell id="143" value="1" style="text;html=1;strokeColor=none;fillColor=none;align=center;verticalAlign=middle;whiteSpace=wrap;rounded=0;" parent="1" vertex="1">
                    <mxGeometry x="625" y="502" width="40" height="20" as="geometry"/>
                </mxCell>
                <mxCell id="144" value="1" style="text;html=1;strokeColor=none;fillColor=none;align=center;verticalAlign=middle;whiteSpace=wrap;rounded=0;" parent="1" vertex="1">
                    <mxGeometry x="620" y="528" width="40" height="20" as="geometry"/>
                </mxCell>
                <mxCell id="146" value="1" style="text;html=1;strokeColor=none;fillColor=none;align=center;verticalAlign=middle;whiteSpace=wrap;rounded=0;" parent="1" vertex="1">
                    <mxGeometry x="625" y="560" width="40" height="20" as="geometry"/>
                </mxCell>
                <mxCell id="147" value="1" style="text;html=1;strokeColor=none;fillColor=none;align=center;verticalAlign=middle;whiteSpace=wrap;rounded=0;" parent="1" vertex="1">
                    <mxGeometry x="330" y="450" width="40" height="20" as="geometry"/>
                </mxCell>
                <mxCell id="148" value="1" style="text;html=1;strokeColor=none;fillColor=none;align=center;verticalAlign=middle;whiteSpace=wrap;rounded=0;" parent="1" vertex="1">
                    <mxGeometry x="434" y="640" width="40" height="20" as="geometry"/>
                </mxCell>
                <mxCell id="149" value="1" style="text;html=1;strokeColor=none;fillColor=none;align=center;verticalAlign=middle;whiteSpace=wrap;rounded=0;" parent="1" vertex="1">
                    <mxGeometry x="-260" y="610" width="40" height="20" as="geometry"/>
                </mxCell>
                <mxCell id="150" value="0,1" style="text;html=1;strokeColor=none;fillColor=none;align=center;verticalAlign=middle;whiteSpace=wrap;rounded=0;" parent="1" vertex="1">
                    <mxGeometry x="-340" y="700" width="40" height="20" as="geometry"/>
                </mxCell>
                <mxCell id="153" value="0,1" style="text;html=1;strokeColor=none;fillColor=none;align=center;verticalAlign=middle;whiteSpace=wrap;rounded=0;" parent="1" vertex="1">
                    <mxGeometry x="-210" y="700" width="40" height="20" as="geometry"/>
                </mxCell>
                <mxCell id="156" value="0,1" style="text;html=1;strokeColor=none;fillColor=none;align=center;verticalAlign=middle;whiteSpace=wrap;rounded=0;" parent="1" vertex="1">
                    <mxGeometry x="-70" y="700" width="40" height="20" as="geometry"/>
                </mxCell>
                <mxCell id="157" value="0,1" style="text;html=1;strokeColor=none;fillColor=none;align=center;verticalAlign=middle;whiteSpace=wrap;rounded=0;" parent="1" vertex="1">
                    <mxGeometry x="60" y="700" width="40" height="20" as="geometry"/>
                </mxCell>
                <mxCell id="158" value="0,1" style="text;html=1;strokeColor=none;fillColor=none;align=center;verticalAlign=middle;whiteSpace=wrap;rounded=0;" parent="1" vertex="1">
                    <mxGeometry x="200" y="690" width="40" height="20" as="geometry"/>
                </mxCell>
                <mxCell id="161" value="0,1" style="text;html=1;strokeColor=none;fillColor=none;align=center;verticalAlign=middle;whiteSpace=wrap;rounded=0;" parent="1" vertex="1">
                    <mxGeometry x="200" y="780" width="40" height="20" as="geometry"/>
                </mxCell>
                <mxCell id="162" value="0,1" style="text;html=1;strokeColor=none;fillColor=none;align=center;verticalAlign=middle;whiteSpace=wrap;rounded=0;" parent="1" vertex="1">
                    <mxGeometry x="60" y="780" width="40" height="20" as="geometry"/>
                </mxCell>
                <mxCell id="163" value="0,1" style="text;html=1;strokeColor=none;fillColor=none;align=center;verticalAlign=middle;whiteSpace=wrap;rounded=0;" parent="1" vertex="1">
                    <mxGeometry x="-85" y="780" width="40" height="20" as="geometry"/>
                </mxCell>
                <mxCell id="164" value="0,1" style="text;html=1;strokeColor=none;fillColor=none;align=center;verticalAlign=middle;whiteSpace=wrap;rounded=0;" parent="1" vertex="1">
                    <mxGeometry x="-220" y="780" width="40" height="20" as="geometry"/>
                </mxCell>
                <mxCell id="166" value="1" style="text;html=1;strokeColor=none;fillColor=none;align=center;verticalAlign=middle;whiteSpace=wrap;rounded=0;" parent="1" vertex="1">
                    <mxGeometry x="160" y="620" width="40" height="20" as="geometry"/>
                </mxCell>
                <mxCell id="167" value="1 &lt;font style=&quot;font-size: 8px&quot;&gt;pour tous&lt;/font&gt;" style="text;html=1;strokeColor=none;fillColor=none;align=center;verticalAlign=middle;whiteSpace=wrap;rounded=0;" parent="1" vertex="1">
                    <mxGeometry x="250" y="670" width="50" height="20" as="geometry"/>
                </mxCell>
                <mxCell id="169" value="1" style="text;html=1;strokeColor=none;fillColor=none;align=center;verticalAlign=middle;whiteSpace=wrap;rounded=0;" parent="1" vertex="1">
                    <mxGeometry x="434" y="770" width="40" height="20" as="geometry"/>
                </mxCell>
                <mxCell id="170" value="1" style="text;html=1;strokeColor=none;fillColor=none;align=center;verticalAlign=middle;whiteSpace=wrap;rounded=0;" parent="1" vertex="1">
                    <mxGeometry x="440" y="730" width="40" height="20" as="geometry"/>
                </mxCell>
                <mxCell id="172" value="1" style="text;html=1;strokeColor=none;fillColor=none;align=center;verticalAlign=middle;whiteSpace=wrap;rounded=0;" parent="1" vertex="1">
                    <mxGeometry x="570" y="778" width="40" height="20" as="geometry"/>
                </mxCell>
                <mxCell id="173" value="1" style="text;html=1;strokeColor=none;fillColor=none;align=center;verticalAlign=middle;whiteSpace=wrap;rounded=0;" parent="1" vertex="1">
                    <mxGeometry x="680" y="778" width="40" height="20" as="geometry"/>
                </mxCell>
                <mxCell id="174" value="1" style="text;html=1;strokeColor=none;fillColor=none;align=center;verticalAlign=middle;whiteSpace=wrap;rounded=0;" parent="1" vertex="1">
                    <mxGeometry x="814" y="780" width="40" height="20" as="geometry"/>
                </mxCell>
                <mxCell id="175" value="1" style="text;html=1;strokeColor=none;fillColor=none;align=center;verticalAlign=middle;whiteSpace=wrap;rounded=0;" parent="1" vertex="1">
                    <mxGeometry x="460" y="730" width="40" height="20" as="geometry"/>
                </mxCell>
                <mxCell id="176" value="1" style="text;html=1;strokeColor=none;fillColor=none;align=center;verticalAlign=middle;whiteSpace=wrap;rounded=0;" parent="1" vertex="1">
                    <mxGeometry x="520" y="722" width="40" height="20" as="geometry"/>
                </mxCell>
                <mxCell id="177" value="1" style="text;html=1;strokeColor=none;fillColor=none;align=center;verticalAlign=middle;whiteSpace=wrap;rounded=0;" parent="1" vertex="1">
                    <mxGeometry x="510" y="728" width="40" height="20" as="geometry"/>
                </mxCell>
                <mxCell id="178" value="1" style="text;html=1;strokeColor=none;fillColor=none;align=center;verticalAlign=middle;whiteSpace=wrap;rounded=0;" parent="1" vertex="1">
                    <mxGeometry x="474" y="585" width="40" height="20" as="geometry"/>
                </mxCell>
                <mxCell id="183" value="1" style="text;html=1;strokeColor=none;fillColor=none;align=center;verticalAlign=middle;whiteSpace=wrap;rounded=0;" parent="1" vertex="1">
                    <mxGeometry x="374" y="440" width="40" height="20" as="geometry"/>
                </mxCell>
                <mxCell id="184" value="1" style="text;html=1;strokeColor=none;fillColor=none;align=center;verticalAlign=middle;whiteSpace=wrap;rounded=0;" parent="1" vertex="1">
                    <mxGeometry x="394" y="400" width="40" height="20" as="geometry"/>
                </mxCell>
                <mxCell id="185" value="1" style="text;html=1;strokeColor=none;fillColor=none;align=center;verticalAlign=middle;whiteSpace=wrap;rounded=0;" parent="1" vertex="1">
                    <mxGeometry x="470" y="498" width="40" height="20" as="geometry"/>
                </mxCell>
                <mxCell id="186" value="1" style="text;html=1;strokeColor=none;fillColor=none;align=center;verticalAlign=middle;whiteSpace=wrap;rounded=0;" parent="1" vertex="1">
                    <mxGeometry x="394" y="420" width="40" height="20" as="geometry"/>
                </mxCell>
                <mxCell id="188" value="*" style="text;html=1;strokeColor=none;fillColor=none;align=center;verticalAlign=middle;whiteSpace=wrap;rounded=0;" parent="1" vertex="1">
                    <mxGeometry x="120" y="285" width="40" height="20" as="geometry"/>
                </mxCell>
                <mxCell id="189" value="0.1" style="text;html=1;strokeColor=none;fillColor=none;align=center;verticalAlign=middle;whiteSpace=wrap;rounded=0;fontSize=10;" parent="1" vertex="1">
                    <mxGeometry x="180" y="401" width="40" height="20" as="geometry"/>
                </mxCell>
                <mxCell id="190" value="1" style="text;html=1;strokeColor=none;fillColor=none;align=center;verticalAlign=middle;whiteSpace=wrap;rounded=0;fontSize=10;" parent="1" vertex="1">
                    <mxGeometry x="240" y="400" width="40" height="20" as="geometry"/>
                </mxCell>
                <mxCell id="191" value="&lt;font style=&quot;font-size: 10px;&quot;&gt;Singleton&lt;/font&gt;" style="text;html=1;strokeColor=none;fillColor=none;align=center;verticalAlign=middle;whiteSpace=wrap;rounded=0;fontStyle=2;fontSize=10;" parent="1" vertex="1">
                    <mxGeometry x="271" y="374" width="40" height="20" as="geometry"/>
                </mxCell>
                <mxCell id="192" value="&lt;font style=&quot;font-size: 10px;&quot;&gt;Singleton&lt;/font&gt;" style="text;html=1;strokeColor=none;fillColor=none;align=center;verticalAlign=middle;whiteSpace=wrap;rounded=0;fontStyle=2;fontSize=10;" parent="1" vertex="1">
                    <mxGeometry x="655" y="475" width="40" height="20" as="geometry"/>
                </mxCell>
                <mxCell id="193" value="&lt;font style=&quot;font-size: 10px;&quot;&gt;Singleton&lt;/font&gt;" style="text;html=1;strokeColor=none;fillColor=none;align=center;verticalAlign=middle;whiteSpace=wrap;rounded=0;fontStyle=2;fontSize=10;" parent="1" vertex="1">
                    <mxGeometry x="655" y="555" width="40" height="20" as="geometry"/>
                </mxCell>
                <mxCell id="194" value="&lt;font style=&quot;font-size: 10px;&quot;&gt;Singleton&lt;/font&gt;" style="text;html=1;strokeColor=none;fillColor=none;align=center;verticalAlign=middle;whiteSpace=wrap;rounded=0;fontStyle=2;fontSize=10;" parent="1" vertex="1">
                    <mxGeometry x="200" y="595" width="40" height="20" as="geometry"/>
                </mxCell>
                <mxCell id="195" value="&lt;font style=&quot;font-size: 10px;&quot;&gt;Singleton&lt;/font&gt;" style="text;html=1;strokeColor=none;fillColor=none;align=center;verticalAlign=middle;whiteSpace=wrap;rounded=0;fontStyle=2;fontSize=10;" parent="1" vertex="1">
                    <mxGeometry x="655" y="205" width="40" height="20" as="geometry"/>
                </mxCell>
                <mxCell id="196" value="&lt;font style=&quot;font-size: 10px;&quot;&gt;Singleton&lt;/font&gt;" style="text;html=1;strokeColor=none;fillColor=none;align=center;verticalAlign=middle;whiteSpace=wrap;rounded=0;fontStyle=2;fontSize=10;" parent="1" vertex="1">
                    <mxGeometry x="540" y="354" width="40" height="20" as="geometry"/>
                </mxCell>
                <mxCell id="197" value="&lt;font style=&quot;font-size: 10px;&quot;&gt;Singleton&lt;/font&gt;" style="text;html=1;strokeColor=none;fillColor=none;align=center;verticalAlign=middle;whiteSpace=wrap;rounded=0;fontStyle=2;fontSize=10;" parent="1" vertex="1">
                    <mxGeometry x="429" y="654" width="40" height="20" as="geometry"/>
                </mxCell>
                <mxCell id="199" value="&lt;font style=&quot;font-size: 10px;&quot;&gt;Singleton&lt;/font&gt;" style="text;html=1;strokeColor=none;fillColor=none;align=center;verticalAlign=middle;whiteSpace=wrap;rounded=0;fontStyle=2;fontSize=10;" parent="1" vertex="1">
                    <mxGeometry x="505" y="465" width="40" height="20" as="geometry"/>
                </mxCell>
                <mxCell id="201" value="" style="endArrow=none;html=1;fontSize=10;entryX=0.5;entryY=0;entryDx=0;entryDy=0;exitX=0.5;exitY=1;exitDx=0;exitDy=0;" parent="1" source="12" target="12" edge="1">
                    <mxGeometry width="50" height="50" relative="1" as="geometry">
                        <mxPoint x="640" y="450" as="sourcePoint"/>
                        <mxPoint x="700" y="400" as="targetPoint"/>
                    </mxGeometry>
                </mxCell>
                <mxCell id="202" value="&lt;div style=&quot;font-size: 10px;&quot;&gt;-NbDVD_dispo : Integer&lt;/div&gt;&lt;div style=&quot;font-size: 10px;&quot;&gt;-NbDVD_louÃ©s : Integer&lt;/div&gt;&lt;div style=&quot;font-size: 10px;&quot;&gt;-NbDVD_louÃ©s&amp;nbsp; total : Integer&lt;/div&gt;&lt;div style=&quot;font-size: 10px;&quot;&gt;-Argent_gagnÃ© : Integer&lt;/div&gt;&lt;div style=&quot;font-size: 10px;&quot;&gt;...&lt;/div&gt;" style="text;html=1;strokeColor=none;fillColor=none;align=left;verticalAlign=middle;whiteSpace=wrap;rounded=0;labelBackgroundColor=none;fontSize=10;" vertex="1" parent="1">
                    <mxGeometry x="505" y="397.5" width="160" height="39" as="geometry"/>
                </mxCell>
            </root>
        </mxGraphModel>
    </diagram>
</mxfile>